<?xml version="1.0" encoding="utf-8"?>
<!-- Generator: Adobe Illustrator 21.0.2, SVG Export Plug-In . SVG Version: 6.00 Build 0)  -->
<svg version="1.1" id="Layer_1" xmlns="http://www.w3.org/2000/svg" xmlns:xlink="http://www.w3.org/1999/xlink" x="0px" y="0px"
	 viewBox="0 0 281 72" style="enable-background:new 0 0 281 72;" xml:space="preserve">
<style type="text/css">
	.st0{fill:#FFFFFF;}
</style>
<g>
	<path class="st0" d="M55.8,48.4c-2.1-0.3-4.3-0.2-6.4-0.1c-2.5,0.1-1.4-4.1-1.3-5.6c0.2-4.7,0.2-9.4,0.2-14.1c0-1.9-3-1.9-3,0
		c0,6.6-0.8,13.5-0.2,20c0.4,4.3,8,2.5,10.7,2.8C57.8,51.6,57.7,48.6,55.8,48.4z"/>
	<path class="st0" d="M70.5,38.4c-2.4,0-4.8,0.1-7.3,0.1c-0.1-1.3-0.1-2.7-0.1-4c0-1.9,5-1.5,6.4-1.7c1.9-0.2,1.9-3.3,0-3
		c-2.6,0.3-7.6-0.3-9.1,2.4c-1.2,2.1-0.2,7.2,0.1,9.4c0.3,2.6-0.7,6.6,2,8.2c1.3,0.7,3.9,0.3,5.3,0.2c1.2-0.1,2.1-0.1,3-0.9
		c1.5-1.3-0.7-3.4-2.1-2.1c-0.4,0.4-4.8,0.3-4.9-0.1c-0.5-1.3-0.5-3.5-0.4-5.4c2.4,0,4.8-0.1,7.2-0.1C72.5,41.4,72.5,38.4,70.5,38.4
		z"/>
	<path class="st0" d="M87.2,29.5c-1.9,0-3.8,0-5.6,0c-2.1,0-4.4,0.3-6.4-0.1c-1.9-0.4-2.7,2.5-0.8,2.9c1.7,0.4,3.6,0.5,5.4,0.4
		c-0.6,5,0,10.3,0.1,15.2c0,1.9,3,1.9,3,0c0-0.1,0-0.1,0-0.2c0,0,0,0,0-0.1c-0.1-4.9-0.8-10.2-0.1-15.1c1.5-0.1,3-0.1,4.4-0.1
		C89.1,32.5,89.1,29.5,87.2,29.5z"/>
	<path class="st0" d="M99.8,36.7c-1.5-0.6-3.5-0.8-4.8-2c-2.6-2.5,2.5-4.2,3.5-4.2c1.5-0.1,2.1,0.7,1.7,0.2c1.3,1.4,3.4-0.7,2.1-2.1
		c-3.2-3.5-11,0.6-11,4.9c0,2.4,2.1,4.2,4.2,4.8c2.1,0.7,3.7,1.2,5.3,2.8c1.3,1.3,1.9,7.6-2.9,4.8c-0.7-0.4-1.1-0.6-1.9-1
		c-1.7-0.8-3.3,1.7-1.5,2.6c2.5,1.2,4,2.1,6.8,1.1c2.2-0.7,3.9-3.2,3.6-5.5C104.4,40.3,102.5,37.9,99.8,36.7z"/>
	<path class="st0" d="M126.6,37.6c-1.9,0-1.9,3,0,3c1.8,0,4.6-1,4.7,1.6c0.1,2.1-3.8,2.2-5,2.2c-2.2,0-3.8-1.7-4.5-3.6
		c-0.8-2.4,0-6.3,1.2-8.5c0.4-0.7,4.9-4,5.5-2.5c0.7,1.8,3.6,1,2.9-0.8c-1.6-3.9-7.1-2.1-9.4-0.1c-4.2,3.7-4.5,11.9-1,16
		c3.2,3.7,10,3.2,12.8-0.6c1.2-1.6,0.6-4.3-0.5-5.8C131.6,36.4,128.7,37.5,126.6,37.6z"/>
	<path class="st0" d="M138.7,29.5c-0.1,0.1-0.2,0.2-0.3,0.3c-0.3,0.1-0.6,0.3-0.8,0.7c-1.3,2.9-2.9,8.8-0.3,11.5
		c2.7,2.8,8.3,3.1,11.1,0.2c2.8-2.7,3.8-8.1,1.2-11.3C146.9,27.8,142.2,27.5,138.7,29.5z M146.8,39.7c-1.5,1.9-6.6,2.6-7.6-0.2
		c-0.8-2.2,0-5.2,0.9-7.3c0.1,0,0.1,0,0.2-0.1c1.9-1.1,4-1.2,5.9-0.2C148.8,33.4,148.4,37.6,146.8,39.7z"/>
	<path class="st0" d="M280.4,31.8c-1.3-2.4-3.4-2.4-5.6-3.4c-1.2-0.6-2.6-0.9-3.9-1.3c-1.3-0.4-2.3-1.1-3.6-1.4
		c-1.9-0.3-2.7,2.6-0.8,2.9c1.5,0.3,3,1.2,4.5,1.6c1.4,0.4,4.2,1,5.7,2c-19.3,0.1-38.5,1-57.7,2c0.1-1.2,0.1-2.4,0-3.7
		c-0.3-7.8-0.7-16.8-4.5-23.7c-3.4-6.2-13.3-5.1-19.1-4.9c-28.9,0-57.9-1.6-86.8-1.6c-7.4,0-14.8,0.5-22.2,0.7
		c-8.1,0.3-16.2-0.1-24.3,0.2C55,1.4,47.7,1.5,40.5,1.4c-7.4-0.1-14.6-0.6-22,0.4C14.1,2.4,7.3,2.5,4.4,6.5
		C1,11.2,0.1,17.2-0.1,22.9c-0.3,6.8,0,13.8,0,20.6c0,6.4-0.3,12.9,3.7,18.3c2.8,3.7,9.5,6,13.8,6.9c3.1,0.7,6.5,0.5,9.6,0.5
		c4.3,0,8.5,0.6,12.8,0.5c15.3-0.2,30.5,1.7,45.9,1.2c9.9-0.3,19.7,0.3,29.6,0.7c10.5,0.4,21.1,0.1,31.6,0.4
		c9.7,0.2,19.2-0.7,28.8-0.7c10.4,0,20.9-1.2,31.2-1.2c6.1,0,9.3-7.3,11.2-12.1c1.6-4,0.2-9,0.2-13.2c0-2.5,0.3-5,0.5-7.5
		c18.9-0.9,37.8-1.9,56.8-2c-2.2,2.6-5.8,6.2-6.2,7.2c-0.8,1.7,1.7,3.3,2.6,1.5c1.2-2.6,4-4.6,5.9-6.8
		C278.9,35.9,281.5,33.8,280.4,31.8z M215.7,53.5c0.1,3-1.7,6.9-3.4,9.4c-2.7,4.1-7.2,4.4-11.7,4.5c-7.1,0.2-14.2,0.6-21.4,0.7
		c-7.3,0.1-14.5,0.9-21.7,0.9c-15.2,0-30.7,0.3-45.8-0.6c-14.8-1-29.6,0.5-44.4-0.5c-15.3-1-30.6-1.3-45.9-1.8
		c-4.5-0.2-8.3-1.7-12.2-3.8c-4.5-2.5-5.8-6.6-6.3-11.5c-0.7-7.5,0-15.3-0.1-22.9c0-6.2-0.7-18.5,6.7-21.3c7.2-2.7,16-2.7,23.6-2.6
		c27.4,0.5,54.8-0.8,82.2-0.8c13.6,0,27.3,0.5,40.9,0.9c6.5,0.2,13.1,0.2,19.6,0.6c6.6,0.4,13,0.2,19.6,0.2c7.2-0.3,15.6-1,18.2,7.5
		c2,6.5,2.6,14.4,2.3,21.2c0,0.3,0,0.5,0,0.8c-16.2,0.8-32.4,1.5-48.6,1.7c-1.9,0-1.9,3,0,3c16.1-0.1,32.3-0.9,48.4-1.7
		c-0.2,1.9-0.4,3.8-0.4,5.7C215.3,46.5,215.6,50,215.7,53.5z"/>
</g>
</svg>
